# xmcd CD database file
#
# Track frame offsets:
#	150
#	33922
#	47435
#	71135
#	97760
#	124457
#	144262
#	166682
#	190757
#	215657
#	254207
#
# Disc length: 3725 seconds
#
# Revision: 0
# Processed by: cddbd v1.4PL0 Copyright (c) Steve Scherf et al.
# Submitted via: CDex 1.40Release
#
DISCID=9b0e8b0b
DTITLE=Jeannie And Jimmy Vheatham - Jeannie And Jimmy Cheatham
DYEAR=1998
DGENRE=Blues
TTITLE0=Meet Me With Your Black Drawers On
TTITLE1=Big Fat daddy
TTITLE2=Show Long Blues
TTITLE3=C.C. Rider
TTITLE4=Take The Wrinkles Out Of Your Birthday Suit
TTITLE5=Messin' 'Round With The boogie
TTITLE6=Blues Like Jay McShann
TTITLE7=What Do We Do For Fun?
TTITLE8=Mr. C.P.
TTITLE9=Coal Yard And Ice House Blues
TTITLE10=Gud Nuz Bluz
EXTD=YEAR: 1998 ID3G: 0
EXTT0=
EXTT1=
EXTT2=
EXTT3=
EXTT4=
EXTT5=
EXTT6=
EXTT7=
EXTT8=
EXTT9=
EXTT10=
PLAYORDER=
